# xmcd
#
# Track frame offsets: 
#        150
#        6089
#        20897
#        38828
#        56101
#        72069
#        87014
#        104959
#        123930
#        138769
#        156097
#        174790
#        188948
#        195046
#        209576
#        238271
#        251540
#        268536
#        281743
#
# Disc length: 4315 seconds
#
# Revision: 0
# Processed by: cddbd v1.5.2PL0 Copyright (c) Steve Scherf et al.
# Submitted via: ExactAudioCopy v0.99pb4
#
DISCID=0c10d913
DTITLE=Yonder Mountain String Band - Live @ The Fox Theatre, Boulder C
DTITLE=O 12-31-2000 Disc 1 of 3
DYEAR=2000
DGENRE=Bluegrass
TTITLE0=Banter
TTITLE1=High On A Hilltop
TTITLE2=Howard Hughes Blues
TTITLE3=Mental Breakdown
TTITLE4=Goin' Up
TTITLE5=Loneliness And Desperation
TTITLE6=Hit Parade Of Love
TTITLE7=Check Out Time
TTITLE8=Can Love Feel That Way Again
TTITLE9=Sorrow Is A Highway
TTITLE10=A Fathers Arms
TTITLE11=Rabbit In A Log
TTITLE12=Banter
TTITLE13=Ramblers Anthem
TTITLE14=Wildwood Drive
TTITLE15=Idaho
TTITLE16=Darlin' One
TTITLE17=Hold What You Got
TTITLE18=Ramblin' in The Rambler> Easy as Pie> Ramblin' in The Rambler
EXTD=
EXTT0=
EXTT1=
EXTT2=
EXTT3=
EXTT4=
EXTT5=
EXTT6=
EXTT7=
EXTT8=
EXTT9=
EXTT10=
EXTT11=
EXTT12=
EXTT13=
EXTT14=
EXTT15=
EXTT16=
EXTT17=
EXTT18=
PLAYORDER=
